<svg width="23" height="23" viewBox="0 0 23 23" fill="none" xmlns="http://www.w3.org/2000/svg">
<rect width="23" height="23" fill="#D1D1D1"/>
<g clip-path="url(#clip0_276_390)">
<rect width="428" height="1228" transform="translate(-28 -705)" fill="#FFFDFD"/>
<rect x="-28" y="-644" width="428" height="1433" fill="#FFF2E3"/>
<rect x="-19" y="-26" width="408" height="114" rx="18" fill="white"/>
<path fill-rule="evenodd" clip-rule="evenodd" d="M14.9595 3.73587C13.2852 2.98985 11.4147 2.80504 9.62676 3.20899C7.83887 3.61294 6.22945 4.58401 5.03854 5.97738C3.84763 7.37074 3.13903 9.11174 3.01843 10.9407C2.89782 12.7697 3.37168 14.5887 4.36932 16.1264C5.36696 17.664 6.83493 18.838 8.5543 19.4733C10.2737 20.1085 12.1523 20.1709 13.9101 19.6512C15.6678 19.1315 17.2104 18.0575 18.3079 16.5894C19.4054 15.1213 19.999 13.3378 20 11.5049V10.5857C20 9.75729 20.6716 9.08572 21.5 9.08572C22.3284 9.08572 23 9.75729 23 10.5857V11.5057C22.9986 13.9856 22.1956 16.3995 20.7107 18.3857C19.2259 20.3719 17.1388 21.8249 14.7607 22.5281C12.3825 23.2312 9.84085 23.1468 7.51464 22.2873C5.18843 21.4279 3.20235 19.8396 1.8526 17.7592C0.502856 15.6788 -0.13824 13.2179 0.0249283 10.7433C0.188097 8.26883 1.14679 5.91336 2.75802 4.02821C4.36925 2.14307 6.5467 0.829272 8.96562 0.28275C11.3845 -0.263771 13.9153 -0.0137301 16.1805 0.995582C16.9372 1.33275 17.2773 2.21952 16.9401 2.97622C16.603 3.73293 15.7162 4.07304 14.9595 3.73587Z" fill="#03CD0B"/>
<path fill-rule="evenodd" clip-rule="evenodd" d="M22.5601 2.4722C23.1462 3.10225 23.1467 4.12427 22.5612 4.75494L12.5612 15.5267C12.2799 15.8296 11.8983 15.9999 11.5004 16C11.1024 16.0001 10.7207 15.83 10.4393 15.5272L7.43934 12.2989C6.85355 11.6686 6.85355 10.6466 7.43934 10.0162C8.02513 9.38584 8.97487 9.38584 9.56066 10.0162L11.4995 12.1025L20.4388 2.47334C21.0243 1.84267 21.9741 1.84215 22.5601 2.4722Z" fill="#03CD0B"/>
</g>
<defs>
<clipPath id="clip0_276_390">
<rect width="428" height="1228" fill="white" transform="translate(-28 -705)"/>
</clipPath>
</defs>
</svg>
