<svg width="174" height="174" viewBox="0 0 174 174" fill="none" xmlns="http://www.w3.org/2000/svg">
<path d="M157.418 82.7059V75.123H154.543C154.201 73.8158 153.681 72.5618 152.998 71.3959L155.03 69.3601L149.668 63.9974L147.632 66.0297C146.466 65.3467 145.212 64.8268 143.905 64.4846V61.5962H136.322V64.4707C135.012 64.8167 133.755 65.3413 132.588 66.0297L130.552 63.9974L125.189 69.3601L127.225 71.3959C126.541 72.5616 126.02 73.8157 125.677 75.123H122.809V82.7059H125.684C126.027 84.0132 126.548 85.2672 127.232 86.433L125.196 88.4688L130.559 93.8314L132.595 91.7991C133.761 92.4807 135.015 93.0005 136.322 93.3442V96.2187H143.905V93.3442C145.211 93.0005 146.465 92.4807 147.632 91.7991L149.668 93.8314L155.03 88.4688L152.998 86.433C153.681 85.2671 154.201 84.013 154.543 82.7059H157.418ZM140.115 85.4899C138.816 85.4906 137.545 85.1058 136.464 84.3843C135.383 83.6628 134.54 82.6369 134.043 81.4364C133.545 80.2359 133.414 78.9147 133.667 77.64C133.92 76.3652 134.546 75.1942 135.465 74.275C136.383 73.3558 137.554 72.7297 138.829 72.4759C140.103 72.2221 141.424 72.352 142.625 72.8492C143.826 73.3464 144.852 74.1885 145.574 75.269C146.296 76.3496 146.682 77.62 146.682 78.9196C146.68 80.6604 145.987 82.3292 144.756 83.5598C143.525 84.7903 141.856 85.482 140.115 85.4829V85.4899Z" fill="#EBB4A2"/>
<path d="M134.505 101.703L133.061 97.9409L131.638 98.4838C131.22 97.9002 130.723 97.3767 130.162 96.9283L130.782 95.5363L127.104 93.8972L126.481 95.2892C125.772 95.1719 125.051 95.152 124.337 95.23L123.791 93.8032L120.029 95.2474L120.578 96.6742C119.994 97.0915 119.47 97.5881 119.023 98.1497L117.631 97.5268L115.992 101.209L117.384 101.832C117.267 102.539 117.247 103.259 117.325 103.972L115.901 104.522L117.342 108.28L118.769 107.734C119.187 108.316 119.684 108.839 120.244 109.286L119.621 110.678L123.303 112.317L123.926 110.925C124.634 111.041 125.354 111.06 126.066 110.981L126.616 112.407L130.375 110.963L129.828 109.54C130.411 109.121 130.933 108.625 131.38 108.064L132.772 108.684L134.412 105.005L133.02 104.382C133.137 103.674 133.156 102.952 133.075 102.239L134.505 101.703ZM126.453 106.373C125.811 106.616 125.111 106.664 124.442 106.51C123.773 106.357 123.164 106.008 122.692 105.51C122.22 105.011 121.907 104.384 121.791 103.707C121.675 103.03 121.761 102.334 122.04 101.707C122.318 101.079 122.776 100.548 123.356 100.18C123.936 99.8123 124.611 99.6241 125.298 99.6393C125.984 99.6545 126.651 99.8724 127.213 100.266C127.776 100.659 128.21 101.21 128.461 101.849C128.629 102.278 128.71 102.735 128.7 103.196C128.689 103.656 128.588 104.109 128.401 104.53C128.215 104.951 127.946 105.331 127.612 105.647C127.277 105.963 126.883 106.21 126.453 106.373V106.373Z" stroke="#EBB4A2" stroke-miterlimit="10"/>
<path d="M122.186 88.5137L121.212 85.9733L120.248 86.3422C119.965 85.9495 119.628 85.5982 119.249 85.2982L119.67 84.3551L117.185 83.2484L116.764 84.1915C116.286 84.1108 115.798 84.0979 115.316 84.1532L114.944 83.1719L112.404 84.1463L112.773 85.1102C112.381 85.3935 112.03 85.7283 111.729 86.1055L110.785 85.6879L109.675 88.1726L110.618 88.5937C110.541 89.0724 110.528 89.5593 110.58 90.0414L109.62 90.4207L110.594 92.9611L111.558 92.5922C111.842 92.9841 112.178 93.3354 112.557 93.6362L112.136 94.5793L114.624 95.686L115.045 94.7429C115.523 94.8237 116.011 94.8365 116.493 94.7812L116.862 95.7451L119.402 94.7707L119.016 93.8137C119.407 93.5304 119.758 93.1956 120.06 92.8184L121.006 93.236L122.113 90.7513L121.17 90.3302C121.249 89.8517 121.262 89.3646 121.208 88.8826L122.186 88.5137ZM116.743 91.67C116.308 91.8373 115.832 91.8715 115.377 91.7685C114.922 91.6655 114.507 91.4299 114.186 91.0914C113.865 90.7529 113.651 90.3268 113.572 89.8669C113.493 89.407 113.552 88.9339 113.742 88.5076C113.932 88.0813 114.244 87.7209 114.639 87.4719C115.033 87.2229 115.493 87.0964 115.959 87.1086C116.426 87.1208 116.878 87.2711 117.259 87.5404C117.64 87.8097 117.933 88.1859 118.1 88.6216C118.211 88.9108 118.264 89.2192 118.256 89.5289C118.248 89.8387 118.179 90.1438 118.053 90.4269C117.927 90.71 117.747 90.9655 117.522 91.1788C117.297 91.3921 117.032 91.559 116.743 91.67V91.67Z" stroke="#EBB4A2" stroke-miterlimit="10"/>
<path d="M121.302 44.029C121.302 46.3988 120.599 48.7153 119.283 50.6857C117.966 52.656 116.095 54.1917 113.906 55.0986C111.716 56.0055 109.307 56.2427 106.983 55.7804C104.659 55.3181 102.524 54.177 100.848 52.5013C99.1726 50.8257 98.0314 48.6907 97.5691 46.3665C97.1068 44.0423 97.3441 41.6332 98.2509 39.4438C99.1578 37.2545 100.694 35.3832 102.664 34.0666C104.634 32.7501 106.951 32.0474 109.321 32.0474C110.895 32.0451 112.454 32.3534 113.908 32.9548C115.363 33.5561 116.685 34.4386 117.798 35.5516C118.911 36.6647 119.793 37.9864 120.395 39.4411C120.996 40.8958 121.304 42.4549 121.302 44.029Z" fill="#FF9191" stroke="#FF9191" stroke-miterlimit="10"/>
<path d="M109.801 43.9716C111.951 43.7061 113.478 41.7482 113.213 39.5985C112.947 37.4488 110.989 35.9213 108.84 36.1868C106.69 36.4523 105.162 38.4102 105.428 40.5599C105.693 42.7096 107.651 44.2371 109.801 43.9716Z" fill="white"/>
<path d="M116.75 51.918C114.634 53.5884 112.017 54.4969 109.32 54.4969C106.624 54.4969 104.007 53.5884 101.891 51.918C102.656 48.5459 103.363 45.6366 104.097 44.8988C105.141 43.8548 107.887 43.2598 109.317 43.2598C110.747 43.2598 113.632 43.994 114.165 44.5265C115.25 45.6088 116.186 48.5981 116.75 51.918Z" fill="white"/>
<path d="M92.105 73.5604V67.6444C92.105 66.8691 92.413 66.1256 92.9612 65.5774C93.5094 65.0292 94.2529 64.7212 95.0282 64.7212H113.667C114.442 64.7212 115.186 65.0292 115.734 65.5774C116.282 66.1256 116.59 66.8691 116.59 67.6444V73.5604C116.59 74.3357 116.282 75.0792 115.734 75.6274C115.186 76.1756 114.442 76.4836 113.667 76.4836H95.0317C94.6475 76.4841 94.267 76.4088 93.9119 76.2621C93.5569 76.1154 93.2342 75.9001 92.9624 75.6287C92.6906 75.3572 92.4749 75.0347 92.3278 74.6799C92.1807 74.325 92.105 73.9446 92.105 73.5604Z" fill="#FF9191"/>
<path d="M99.9767 73.2539L90.9565 82.0409L105.576 74.6494" fill="#FF9191"/>
<path d="M94.3672 67.5122V67.4809C94.3672 67.3655 94.413 67.2549 94.4946 67.1733C94.5762 67.0917 94.6868 67.0459 94.8022 67.0459H104.017C104.133 67.0459 104.243 67.0917 104.325 67.1733C104.406 67.2549 104.452 67.3655 104.452 67.4809V67.5122C104.452 67.6276 104.406 67.7382 104.325 67.8198C104.243 67.9014 104.133 67.9472 104.017 67.9472H94.8022C94.6868 67.9472 94.5762 67.9014 94.4946 67.8198C94.413 67.7382 94.3672 67.6276 94.3672 67.5122Z" fill="white"/>
<path d="M104.866 67.5122V67.4809C104.866 67.3655 104.912 67.2549 104.994 67.1733C105.075 67.0917 105.186 67.0459 105.301 67.0459H113.344C113.459 67.0459 113.57 67.0917 113.651 67.1733C113.733 67.2549 113.779 67.3655 113.779 67.4809V67.5122C113.779 67.6276 113.733 67.7382 113.651 67.8198C113.57 67.9014 113.459 67.9472 113.344 67.9472H105.301C105.186 67.9472 105.075 67.9014 104.994 67.8198C104.912 67.7382 104.866 67.6276 104.866 67.5122Z" fill="white"/>
<path d="M101.355 69.478V69.4467C101.355 69.3313 101.401 69.2207 101.482 69.1391C101.564 69.0575 101.675 69.0117 101.79 69.0117H113.344C113.459 69.0117 113.57 69.0575 113.651 69.1391C113.733 69.2207 113.779 69.3313 113.779 69.4467V69.478C113.779 69.5934 113.733 69.7041 113.651 69.7856C113.57 69.8672 113.459 69.913 113.344 69.913H101.79C101.675 69.913 101.564 69.8672 101.482 69.7856C101.401 69.7041 101.355 69.5934 101.355 69.478Z" fill="white"/>
<path d="M94.3672 69.478V69.4467C94.3672 69.3313 94.413 69.2207 94.4946 69.1391C94.5762 69.0575 94.6868 69.0117 94.8022 69.0117H99.963C100.078 69.0117 100.189 69.0575 100.271 69.1391C100.352 69.2207 100.398 69.3313 100.398 69.4467V69.478C100.398 69.5934 100.352 69.7041 100.271 69.7856C100.189 69.8672 100.078 69.913 99.963 69.913H94.8022C94.6868 69.913 94.5762 69.8672 94.4946 69.7856C94.413 69.7041 94.3672 69.5934 94.3672 69.478Z" fill="white"/>
<path d="M102.959 71.4585V71.4272C102.959 71.3118 103.005 71.2012 103.086 71.1196C103.168 71.038 103.279 70.9922 103.394 70.9922H113.343C113.459 70.9922 113.569 71.038 113.651 71.1196C113.732 71.2012 113.778 71.3118 113.778 71.4272V71.4585C113.778 71.5739 113.732 71.6845 113.651 71.7661C113.569 71.8477 113.459 71.8935 113.343 71.8935H103.394C103.279 71.8935 103.168 71.8477 103.086 71.7661C103.005 71.6845 102.959 71.5739 102.959 71.4585Z" fill="white"/>
<path d="M94.3672 71.4585V71.4272C94.3672 71.3118 94.413 71.2012 94.4946 71.1196C94.5762 71.038 94.6868 70.9922 94.8022 70.9922H101.675C101.791 70.9922 101.901 71.038 101.983 71.1196C102.064 71.2012 102.11 71.3118 102.11 71.4272V71.4585C102.11 71.5739 102.064 71.6845 101.983 71.7661C101.901 71.8477 101.791 71.8935 101.675 71.8935H94.8022C94.6868 71.8935 94.5762 71.8477 94.4946 71.7661C94.413 71.6845 94.3672 71.5739 94.3672 71.4585Z" fill="white"/>
<path d="M94.3672 73.4282V73.3969C94.3672 73.2815 94.413 73.1709 94.4946 73.0893C94.5762 73.0077 94.6868 72.9619 94.8022 72.9619H97.353C97.4684 72.9619 97.579 73.0077 97.6606 73.0893C97.7422 73.1709 97.788 73.2815 97.788 73.3969V73.4282C97.788 73.5436 97.7422 73.6542 97.6606 73.7358C97.579 73.8174 97.4684 73.8632 97.353 73.8632H94.8022C94.6868 73.8632 94.5762 73.8174 94.4946 73.7358C94.413 73.6542 94.3672 73.5436 94.3672 73.4282Z" fill="white"/>
<path d="M98.689 73.4282V73.3969C98.689 73.2815 98.7348 73.1709 98.8164 73.0893C98.898 73.0077 99.0086 72.9619 99.124 72.9619H113.343C113.459 72.9619 113.569 73.0077 113.651 73.0893C113.732 73.1709 113.778 73.2815 113.778 73.3969V73.4282C113.778 73.5436 113.732 73.6542 113.651 73.7358C113.569 73.8174 113.459 73.8632 113.343 73.8632H99.124C99.0086 73.8632 98.898 73.8174 98.8164 73.7358C98.7348 73.6542 98.689 73.5436 98.689 73.4282Z" fill="white"/>
<path d="M46.0942 65.1848C48.7793 59.4133 46.2774 52.5579 40.5059 49.8728C34.7345 47.1876 27.879 49.6896 25.1939 55.461C22.5088 61.2325 25.0107 68.0879 30.7822 70.773C36.5536 73.4582 43.409 70.9562 46.0942 65.1848Z" fill="#FF9191"/>
<path d="M33.8488 68.6202C35.3049 68.1089 36.0708 66.5139 35.5594 65.0577C35.0481 63.6016 33.4531 62.8357 31.9969 63.347C30.5408 63.8584 29.7749 65.4534 30.2863 66.9095C30.7976 68.3657 32.3926 69.1316 33.8488 68.6202Z" fill="white"/>
<path d="M31.4589 66.983L31.3267 65.2117L32.7917 64.2095L34.3925 64.9786L34.5283 66.7499L33.0632 67.7521L31.4589 66.983Z" fill="#FF9191"/>
<path d="M39.2987 57.2987C40.752 56.7792 41.509 55.18 40.9895 53.7267C40.47 52.2734 38.8708 51.5165 37.4175 52.0359C35.9642 52.5554 35.2073 54.1547 35.7267 55.6079C36.2462 57.0612 37.8455 57.8182 39.2987 57.2987Z" fill="white"/>
<path d="M36.9746 55.5027L37.0686 53.2476L38.7668 51.7651L40.3676 52.5342L40.2737 54.7858L38.5754 56.2717L36.9746 55.5027Z" fill="#FF9191"/>
<path d="M34.8626 64.6895L32.7119 63.6838L34.2884 60.0403C34.3893 59.8071 34.5006 59.5809 34.6155 59.3443L36.4703 55.8364L38.607 56.8595L37.0863 60.4474C36.9693 60.7255 36.838 60.9973 36.693 61.2617L34.8626 64.6895Z" fill="white"/>
<path d="M43.6494 66.5272C44.0601 66.3358 50.6755 66.6351 50.6755 66.6351L45.9079 62.2607L43.6494 66.5272Z" fill="#FF9191"/>
<path d="M72.8334 40.8305C75.3169 35.0887 72.6756 28.4207 66.9337 25.9371C61.1918 23.4536 54.5238 26.095 52.0403 31.8368C49.5568 37.5787 52.1982 44.2467 57.94 46.7302C63.6819 49.2138 70.3499 46.5724 72.8334 40.8305Z" fill="#FF9191"/>
<path d="M62.8138 26.6846H62.0586V36.1989H62.8138V26.6846Z" fill="white"/>
<path d="M54.0785 41.6867L54.5083 42.3076L62.4373 36.8194L62.0075 36.1985L54.0785 41.6867Z" fill="white"/>
<path d="M63.4786 36.3379C63.4786 36.5444 63.4174 36.7463 63.3027 36.918C63.188 37.0896 63.0249 37.2235 62.8341 37.3025C62.6434 37.3815 62.4335 37.4022 62.2309 37.3619C62.0284 37.3216 61.8424 37.2222 61.6964 37.0762C61.5504 36.9302 61.451 36.7441 61.4107 36.5416C61.3704 36.3391 61.3911 36.1292 61.4701 35.9384C61.5491 35.7477 61.6829 35.5846 61.8546 35.4699C62.0263 35.3552 62.2281 35.2939 62.4346 35.2939C62.7115 35.2939 62.9771 35.4039 63.1728 35.5997C63.3686 35.7955 63.4786 36.0611 63.4786 36.3379Z" fill="white"/>
<path d="M93.194 113.045C92.5224 102.688 97.0533 91.9697 104.678 85.8379C104.922 96.2466 100.436 106.781 93.194 113.045Z" fill="#EBB4A2"/>
<path d="M103.439 88.625C100.208 94.6538 97.4313 100.915 95.1327 107.358C92.3243 115.212 90.1319 123.557 85.3052 130.152" stroke="#DB7862" stroke-miterlimit="10" stroke-linecap="round"/>
<path d="M90.7861 119.559C94.6559 110.918 102.312 104.4 110.768 102.542C107.184 111.802 99.0755 118.866 90.7861 119.559Z" fill="#EBB4A2"/>
<path d="M108.694 104.445C102.922 109.526 97.0514 114.463 91.082 119.256" stroke="#DB7862" stroke-miterlimit="10" stroke-linecap="round"/>
<path d="M88.5068 127.086C93.6677 119.378 103.189 115.355 111.068 117.554C105.273 125.165 95.7313 129.198 88.5068 127.086Z" fill="#EBB4A2"/>
<path d="M109.178 118.111C102.514 122.301 95.2335 125.418 87.6021 127.347" stroke="#DB7862" stroke-miterlimit="10" stroke-linecap="round"/>
<path d="M91.294 116.928C92.9436 108.249 90.4693 98.5745 84.9605 92.1748C82.7019 100.715 84.8561 110.709 91.294 116.928Z" fill="#EBB4A2"/>
<path d="M85.5278 94.3984C86.5426 102.297 88.5574 110.035 91.5239 117.426" stroke="#DB7862" stroke-miterlimit="10" stroke-linecap="round"/>
<path d="M88.4613 124.33C87.7653 115.407 83.1856 107.027 76.4971 102.406C76.8763 107.065 78.109 111.615 80.1337 115.828C82.427 120.582 85.7956 123.599 88.4613 124.33Z" fill="#EBB4A2"/>
<path d="M77.4888 104.208C80.0621 111.543 83.8244 118.404 88.6248 124.518" stroke="#DB7862" stroke-miterlimit="10" stroke-linecap="round"/>
<path d="M140.115 122.19C143.766 112.693 152.163 104.988 161.423 102.643C157.366 112.011 149.083 119.562 140.115 122.19Z" fill="#EBB4A2"/>
<path d="M159.178 104.616C153.849 108.669 148.828 113.114 144.159 117.913C138.458 123.766 133.082 130.295 126.132 134.199" stroke="#DB7862" stroke-miterlimit="10" stroke-linecap="round"/>
<path d="M135.316 127.02C142.276 120.899 151.724 118.212 159.951 120.015C152.977 126.787 142.927 129.776 135.316 127.02Z" fill="#EBB4A2"/>
<path d="M157.337 120.857C150.145 123.028 142.933 125.031 135.699 126.863" stroke="#DB7862" stroke-miterlimit="10" stroke-linecap="round"/>
<path d="M130.214 132.786C137.936 128.026 148.001 128.328 154.063 133.503C145.812 137.916 135.72 137.613 130.214 132.786Z" fill="#EBB4A2"/>
<path d="M152.166 133.225C144.562 134.238 136.846 134.041 129.303 132.644" stroke="#DB7862" stroke-miterlimit="10" stroke-linecap="round"/>
<path d="M136.84 124.883C141.855 117.826 143.633 108.197 141.389 100.249C135.894 106.923 133.701 116.705 136.84 124.883Z" fill="#EBB4A2"/>
<path d="M140.982 102.448C138.643 109.899 137.258 117.616 136.858 125.416" stroke="#DB7862" stroke-miterlimit="10" stroke-linecap="round"/>
<path d="M131.307 130.312C134.342 122.078 133.743 112.745 129.72 105.896C128.147 110.2 127.372 114.755 127.434 119.336C127.507 124.508 129.247 128.572 131.307 130.312Z" fill="#EBB4A2"/>
<path d="M129.852 107.908C129.121 115.486 129.635 123.133 131.373 130.545" stroke="#DB7862" stroke-miterlimit="10" stroke-linecap="round"/>
<path d="M36.6514 105.587C32.9312 94.2036 22.5469 85.006 10.4644 82.396C15.5417 92.2444 24.7567 100.081 36.6514 105.587Z" fill="#EBB4A2"/>
<path d="M37.2811 107.351C33.1702 105.064 28.6343 103.643 23.9532 103.177C19.2722 102.711 14.5452 103.209 10.064 104.64C18.4967 108.851 28.1833 109.816 37.2811 107.351Z" fill="#EBB4A2"/>
<path d="M39.536 109.822C30.7281 108.6 21.4991 110.772 14.3442 115.738C22.4596 118.699 32.1932 116.785 39.536 109.822Z" fill="#EBB4A2"/>
<path d="M42.2851 115.213C33.5607 115.178 24.9791 119.322 19.853 126.056C23.7505 126.834 27.7933 126.379 31.4205 124.755C34.9841 123.144 37.9664 120.408 42.2851 115.213Z" fill="#EBB4A2"/>
<path d="M48.4347 124.236C39.8321 122.76 30.6658 125.426 24.4609 131.196C28.1813 132.605 32.2468 132.826 36.0981 131.829C39.8878 130.848 43.2982 128.624 48.4347 124.236Z" fill="#EBB4A2"/>
<path d="M39.1462 106.14C33.4668 98.4842 31.9252 88.1521 35.1477 79.3721C37.6115 83.5481 39.7378 87.9607 40.7157 92.6483C41.6935 97.3358 41.5369 102.34 39.1462 106.14Z" fill="#EBB4A2"/>
<path d="M42.6192 113.514C41.9773 109.43 42.3043 105.253 43.5737 101.319C44.8432 97.385 47.0195 93.8044 49.9273 90.8662C50.6059 99.2809 48.0237 107.856 42.6192 113.514Z" fill="#EBB4A2"/>
<path d="M13.1089 84.4351C30.3975 95.498 43.9208 111.99 51.0583 130.719" stroke="#DB7862" stroke-miterlimit="10" stroke-linecap="round"/>
<path d="M35.6909 83.4087C37.7964 91.9337 39.0783 100.641 39.5189 109.411" stroke="#DB7862" stroke-miterlimit="10" stroke-linecap="round"/>
<path d="M48.6362 94.1689C47.9378 101.089 45.8209 107.79 42.4175 113.855" stroke="#DB7862" stroke-miterlimit="10" stroke-linecap="round"/>
<path d="M13.7007 104.838C21.6301 106.341 29.6744 107.156 37.744 107.274" stroke="#DB7862" stroke-miterlimit="10" stroke-linecap="round"/>
<path d="M18.4785 115.073C25.7725 114.543 32.9235 112.778 39.6265 109.853" stroke="#DB7862" stroke-miterlimit="10" stroke-linecap="round"/>
<path d="M22.8564 124.828L43.0892 114.736" stroke="#DB7862" stroke-miterlimit="10" stroke-linecap="round"/>
<path d="M27.2446 130.768C36.049 129.07 38.666 127.041 48.4378 124.236" stroke="#DB7862" stroke-miterlimit="10" stroke-linecap="round"/>
<path d="M82.9909 114.638C82.9909 114.638 83.7531 121.623 84.6057 122.183C86.1299 123.189 103.773 125.513 103.773 125.513L103.196 130.103C103.196 130.103 79.0307 132.275 78.0041 131.067C76.2223 128.979 73.0903 118.866 73.0903 118.866L82.9909 114.638Z" fill="#E06A58"/>
<path d="M71.3398 96.6568L73.2921 91.9692C73.2921 91.9692 78.5887 94.4574 80.3357 97.5372C82.2044 100.822 84.4908 118.288 84.4908 118.288C84.4908 118.288 75.14 120.443 73.4209 119.527C71.7018 118.612 71.3398 96.6568 71.3398 96.6568Z" fill="#F2AE30"/>
<path d="M56.4696 74.8999C55.102 74.3988 53.6543 73.9603 52.1892 74.0717C50.7241 74.183 49.2277 74.9591 48.7301 76.2467C48.3821 77.1584 48.5387 78.2337 47.9784 79.055C47.4181 79.8763 46.3776 80.1686 45.3823 80.2347C44.387 80.3009 43.3778 80.1721 42.386 80.3009C39.3236 80.708 37.1382 84.0349 38.1439 86.7597C38.5441 87.8455 39.3654 88.8825 39.1879 90.0135C38.9896 91.2246 37.7194 92.0215 37.1974 93.1455C36.5014 94.6419 37.3331 96.455 38.7007 97.4747C40.0684 98.4943 41.8327 98.8667 43.5727 99.1346C45.9496 99.4826 48.403 99.6566 50.752 99.1555C53.101 98.6544 55.3456 97.4155 56.5601 95.4806C57.0995 94.6245 57.4266 93.6571 58.053 92.8532C59.3476 91.1933 61.6409 90.5495 63.447 89.3732C65.4202 88.0821 66.8678 85.5696 65.7055 83.6034C64.585 81.7137 61.6687 81.2927 60.4855 79.4274C60.0018 78.6583 59.887 77.7431 59.5738 76.9044C59.2606 76.0657 58.4915 75.6411 56.4696 74.8999Z" fill="#0A2240"/>
<path d="M64.4392 98.0805C64.7872 98.4772 65.1909 98.9122 65.7546 98.9505C66.3184 98.9888 66.8473 98.5712 67.2301 98.164C69.1594 96.1328 70.4796 93.6007 71.0407 90.856C70.5501 90.5776 70.0768 90.3097 69.6487 90.0591C69.2676 89.8393 68.9647 89.5059 68.7822 89.1056C68.6646 88.8219 68.6204 88.5131 68.6535 88.2078C68.8304 85.9096 69.3162 83.6458 70.0977 81.4774C65.7337 80.4926 61.6169 79.3233 59.2505 77.3467C58.9617 78.5647 58.6206 80.9485 57.8933 83.3114C57.1173 85.8135 55.9062 88.2878 53.853 89.3527C57.8232 91.6808 61.3968 94.6271 64.4392 98.0805Z" fill="#F9A07B"/>
<path d="M68.6532 88.2112C68.62 88.5165 68.6643 88.8253 68.782 89.109C66.1998 92.241 60.43 88.1485 57.8931 83.3148C58.6204 80.9519 58.9614 78.5681 59.2503 77.3501C61.6132 79.3267 65.7335 80.4821 70.0974 81.4809C69.3156 83.6492 68.8298 85.913 68.6532 88.2112Z" fill="#E06A58"/>
<path d="M75.843 126.073C75.2722 129.853 79.3508 133.921 79.4517 135.939C70.79 135.939 52.6557 136.468 43.4059 135.212C42.9848 132.88 47.5471 127.636 47.5471 122.458C47.5471 121.762 47.5192 121.02 47.4635 120.213C47.3174 117.902 46.9763 115.153 46.597 112.334C45.553 104.772 44.1958 96.6744 45.205 95.0075C47.1886 91.7398 51.817 89.5195 54.1277 88.566C54.9177 88.2389 55.4327 88.0614 55.471 88.0405C58.3559 92.9612 64.2267 97.1581 66.4435 96.9702C67.0594 96.9215 68.8795 96.2742 70.094 90.2051C70.5638 90.473 71.0336 90.7201 71.486 90.9602C73.7793 92.1539 75.93 93.1387 76.5494 94.6734C78.185 98.7137 79.7893 108.9 79.4343 112.522C79.0793 116.145 77.6073 118.967 76.5772 122.635C76.3371 123.495 76.1179 124.407 75.9404 125.388C75.9126 125.607 75.8638 125.837 75.843 126.073Z" fill="#FFC73C"/>
<path d="M79.4517 135.939C70.79 135.939 52.6557 136.468 43.4059 135.212C42.9848 132.88 47.5471 127.636 47.5471 122.458C47.5471 121.762 47.5192 121.02 47.4635 120.213C47.3174 117.902 46.9763 115.153 46.597 112.334C48.2361 114.074 50.6269 106.766 51.6848 108.896C57.4094 120.45 61.9229 123.488 69.7808 123.488C72.0818 123.465 74.3727 123.179 76.6085 122.635C76.3684 123.495 76.1492 124.407 75.9717 125.388C75.9299 125.62 75.8917 125.852 75.8569 126.084C75.2722 129.849 79.3438 133.917 79.4517 135.939Z" fill="#FFBB33"/>
<path d="M71.5035 90.9602C71.1311 93.6642 70.028 97.3078 66.8194 98.2682C62.4833 99.5663 56.2089 91.4648 54.1313 88.566C54.9213 88.2389 55.4363 88.0614 55.4746 88.0405C58.3595 92.9612 64.2303 97.1581 66.4471 96.9702C67.063 96.9215 68.8831 96.2742 70.0976 90.2051C70.5674 90.48 71.0372 90.7166 71.5035 90.9602Z" fill="#FCE172"/>
<path d="M73.2852 131.871L73.2539 134.892L127.194 135.212L127.305 131.788L73.2852 131.871Z" fill="#325F73"/>
<path d="M150.573 104.957L149.372 103.739L110.083 103.481L90.3721 131.983L91.4021 132.811L150.573 104.957Z" fill="#325F73"/>
<path d="M110.841 104.532L91.4019 132.811L128.533 132.999L150.572 104.957L110.841 104.532Z" fill="#0B2D50"/>
<path d="M120.224 122.583C122.611 122.583 124.546 121.615 124.546 120.422C124.546 119.228 122.611 118.261 120.224 118.261C117.836 118.261 115.901 119.228 115.901 120.422C115.901 121.615 117.836 122.583 120.224 122.583Z" fill="#3C738C"/>
<path d="M81.9331 78.0885C82.5456 74.8028 81.2853 71.8118 79.1182 71.4078C76.951 71.0038 74.6977 73.3398 74.0851 76.6255C73.4726 79.9111 74.7329 82.9022 76.9 83.3062C79.0672 83.7102 81.3205 81.3742 81.9331 78.0885Z" fill="#F97D56"/>
<path d="M81.9363 67.766C81.5326 70.644 80.2555 73.776 78.3937 77.256C77.7394 74.4024 77.3218 70.9259 76.7441 67.4493C76.1665 63.9728 75.4078 60.4893 74.1098 57.6357C73.8277 57.0211 73.5093 56.4238 73.1562 55.847C73.9257 55.7756 74.7017 55.8452 75.4461 56.0523C76.6101 56.3673 77.6832 56.9528 78.5781 57.761C80.0273 59.117 81.082 60.8404 81.6301 62.7479C82.1114 64.3757 82.2161 66.0917 81.9363 67.766Z" fill="#0B2D50"/>
<path d="M79.7511 70.7241C79.7302 71.2879 79.692 71.8621 79.6398 72.4328C78.8463 81.6896 74.9592 88.0441 69.0118 88.0441C60.6146 88.0441 55.1719 78.6272 55.1719 69.4017C55.1719 60.3015 60.7399 53.7139 67.2718 54.476C71.0337 54.9075 73.7829 56.1568 75.7352 57.9873C77.0095 59.2044 77.988 60.6972 78.5958 62.3512C79.3303 64.3665 79.7197 66.4913 79.7476 68.6361C79.7476 68.6361 79.7476 68.6361 79.7476 68.657C79.7824 69.3286 79.7755 70.0177 79.7511 70.7241Z" fill="#F9A07B"/>
<path d="M79.7509 70.7242C79.5043 69.8219 79.123 68.9619 78.6199 68.1733C73.5649 70.8046 67.7946 71.7312 62.17 70.8147L59.0171 73.449C59.038 69.2382 59.0971 66.3881 60.7397 64.3488C62.2813 62.4348 64.8531 61.7145 67.2891 61.4013C70.0335 61.041 72.8144 61.0585 75.554 61.4535C76.6174 61.5564 77.651 61.8624 78.599 62.3548C79.3335 64.3701 79.723 66.4948 79.7509 68.6397C79.7509 68.6397 79.7509 68.6397 79.7509 68.6605C79.7822 69.3287 79.7753 70.0177 79.7509 70.7242Z" fill="#E06A58"/>
<path d="M80.9621 65.0236C79.6932 66.0526 78.2698 66.8748 76.7444 67.4596C72.1299 69.3214 66.1339 69.9374 61.4602 69.7112C59.1634 74.7572 58.2343 76.5668 57.6322 80.969C55.3876 78.881 53.5606 75.0077 53.0177 71.9767C52.4433 68.9362 52.5622 65.8054 53.3657 62.8173C53.8912 61.0118 54.7829 59.3339 55.9851 57.888C57.1873 56.4421 58.6743 55.2593 60.3536 54.4131C60.8395 54.1497 61.3417 53.9172 61.8569 53.7171C64.8184 52.5722 68.1557 52.6731 71.1938 53.6057C72.7666 54.1018 74.2095 54.9409 75.4185 56.0626C77.7884 58.2028 79.2465 61.1017 80.2 63.2732C80.5237 63.9379 80.7638 64.5399 80.9621 65.0236Z" fill="#0B2D50"/>
<path d="M81.9364 67.7659C81.7503 66.7567 81.4551 65.7707 81.056 64.8253C80.8256 64.2837 80.5485 63.7632 80.2277 63.2698C79.2088 61.5856 77.6387 60.3057 75.7838 59.6471C75.2811 58.9367 74.7225 58.2676 74.1134 57.6461C72.1884 55.6378 69.6647 54.307 66.9202 53.8529C64.7288 53.5052 62.4857 53.6963 60.3848 54.4097C60.8707 54.1463 61.3729 53.9138 61.8881 53.7137C64.8496 52.5688 68.1869 52.6697 71.225 53.6023C72.7978 54.0983 74.2407 54.9375 75.4497 56.0592C76.6137 56.3742 77.6868 56.9596 78.5817 57.7679C80.0309 59.1239 81.0856 60.8472 81.6336 62.7547C82.1111 64.3809 82.2146 66.0941 81.9364 67.7659Z" fill="#225570"/>
<path d="M64.1362 73.428C65.6883 72.5406 67.2996 72.1404 69.5581 72.9652" stroke="#0B2D50" stroke-width="2" stroke-miterlimit="10" stroke-linecap="round"/>
<path d="M74.7642 73.3793C76.0935 72.3875 78.0632 72.2866 79.0898 73.3793" stroke="#0B2D50" stroke-width="2" stroke-miterlimit="10" stroke-linecap="round"/>
<path d="M73.1596 78.4395C73.2954 79.1355 73.2223 80.698 72.8882 81.3975" stroke="#CC454E" stroke-width="2" stroke-miterlimit="10" stroke-linecap="round"/>
<path d="M67.9157 78.9124C68.2693 78.9124 68.556 78.4606 68.556 77.9032C68.556 77.3459 68.2693 76.894 67.9157 76.894C67.5621 76.894 67.2754 77.3459 67.2754 77.9032C67.2754 78.4606 67.5621 78.9124 67.9157 78.9124Z" fill="#262D40"/>
<path d="M76.2849 78.4427C76.6385 78.4427 76.9252 77.9909 76.9252 77.4335C76.9252 76.8762 76.6385 76.4243 76.2849 76.4243C75.9312 76.4243 75.6445 76.8762 75.6445 77.4335C75.6445 77.9909 75.9312 78.4427 76.2849 78.4427Z" fill="#262D40"/>
<path d="M72.3836 82.7718C72.2808 82.9709 72.1645 83.1627 72.0356 83.346C71.5721 84.0193 70.9122 84.5333 70.146 84.818C69.7467 84.9551 69.3189 84.9874 68.9036 84.9119C67.5951 84.6788 67.2506 83.4712 67.188 82.5421C67.1795 82.3751 67.1795 82.2079 67.188 82.041C67.1903 81.8313 67.2066 81.622 67.2367 81.4146C69.3003 82.549 72.3836 82.7718 72.3836 82.7718Z" fill="#CC454E"/>
<path d="M72.3839 82.772C72.2811 82.9711 72.1648 83.163 72.0359 83.3462C70.971 83.3462 68.7925 82.7859 67.2021 82.0273C67.2045 81.8176 67.2208 81.6084 67.2509 81.4009C69.3006 82.5493 72.3839 82.772 72.3839 82.772Z" fill="white"/>
<path d="M70.1077 84.8144C69.7206 84.9462 69.3069 84.9797 68.9036 84.9119C67.5951 84.6787 67.2506 83.4712 67.188 82.542C67.8399 82.6169 68.4584 82.8703 68.9754 83.2744C69.4925 83.6784 69.8879 84.2174 70.1181 84.8318L70.1077 84.8144Z" fill="#E8729B"/>
<path d="M57.6669 71.8446C57.7085 68.8782 58.2984 65.9451 59.4069 63.1933C61.6724 57.7819 66.2903 55.4677 70.7691 55.3111C72.3864 55.2728 73.9952 55.5565 75.5019 56.1455C77.0086 56.7346 78.3832 57.6173 79.5457 58.7424C79.5457 58.7424 77.7883 55.6417 74.3257 54.7509C72.0497 54.1662 68.615 54.0549 65.8588 55.1928C63.0191 56.3447 59.48 59.5428 58.2028 62.9219C56.9257 66.301 56.3027 71.5627 56.3027 71.5627L57.6669 71.8446Z" fill="#E0513D"/>
<path d="M57.0253 82.9544C59.3257 82.7221 60.9051 79.7079 60.553 76.2221C60.2009 72.7363 58.0506 70.0989 55.7502 70.3312C53.4498 70.5636 51.8704 73.5778 52.2225 77.0636C52.5746 80.5494 54.7249 83.1868 57.0253 82.9544Z" fill="#F97D56"/>
<path d="M56.5186 82.0134C58.0106 81.789 58.9002 79.4795 58.5056 76.8547C58.111 74.23 56.5816 72.2841 55.0896 72.5084C53.5977 72.7327 52.7081 75.0423 53.1027 77.667C53.4973 80.2917 55.0267 82.2377 56.5186 82.0134Z" fill="#E0513D"/>
<path d="M70.7968 88.1694C72.0345 88.1694 73.0379 87.5446 73.0379 86.7739C73.0379 86.0032 72.0345 85.3784 70.7968 85.3784C69.559 85.3784 68.5557 86.0032 68.5557 86.7739C68.5557 87.5446 69.559 88.1694 70.7968 88.1694Z" fill="#C9543A"/>
<path d="M59.5391 82.1069C59.5391 82.1069 62.8311 86.3386 68.5557 86.7736" stroke="#C9543A" stroke-width="2" stroke-miterlimit="10" stroke-linecap="round"/>
<path d="M73.2537 123.815L73.0379 129.383C73.0379 129.383 52.9131 135.414 49.5897 133.507C47.968 132.574 46.4577 127.444 45.3232 122.437C44.14 117.175 43.3813 112.052 43.3813 112.052L55.1785 109.742C55.1785 109.742 55.1785 116.935 55.5857 121.093C55.7284 122.642 55.9337 123.77 56.2086 123.954C57.2492 124.636 73.2537 123.815 73.2537 123.815Z" fill="#F9A07B"/>
<path d="M55.5857 121.083C53.442 121.779 49.3217 122.854 45.3232 122.43C44.14 117.168 43.3813 112.046 43.3813 112.046L55.1786 109.735C55.1786 109.735 55.1855 116.928 55.5857 121.083Z" fill="#E06A58"/>
<path d="M72.6795 123.888C75.6723 123.248 80.7392 121.709 82.8411 121.18C84.334 120.805 88.2212 122.816 89.2478 124.713C89.6967 125.541 90.1212 130.232 88.5518 129.748C87.7722 129.505 87.901 127.493 87.6574 126.672C87.459 126.004 86.8257 125.356 85.8617 124.8C86.5055 126.404 86.4812 127.803 86.4116 129.536C86.4253 129.919 86.349 130.301 86.1888 130.65C86.1068 130.819 85.9676 130.954 85.7957 131.031C85.6239 131.108 85.4304 131.122 85.2492 131.071C84.9012 130.924 84.7725 130.483 84.6924 130.096C84.3781 128.721 84.156 127.325 84.0278 125.92C84.0556 127.406 84.0278 128.896 83.9303 130.378C83.8607 131.513 83.297 132.136 82.6044 131.937C82.2947 131.85 82.1695 131.565 82.0372 131.189C81.8284 131.916 81.3064 132.72 80.6452 132.414C80.2346 132.229 79.9805 130.747 80.0536 129.223C78.7057 130.011 77.1746 130.432 75.6131 130.444C74.1028 130.514 72.5577 130.232 71.6494 129.205C71.8116 127.403 72.1568 125.621 72.6795 123.888Z" fill="#F9A07B"/>
<path d="M82.0827 130.935C82.1841 129.73 82.0793 128.517 81.7729 127.347" stroke="#CC454E" stroke-miterlimit="10" stroke-linecap="round"/>
<path d="M53.853 98.0665C52.9969 95.6548 49.8614 90.7202 49.8614 90.7202C49.8614 90.7202 45.0764 92.7108 43.3782 96.0898C40.5037 101.811 41.9653 118.237 41.9653 118.237C45.8386 119.858 53.6129 119.883 56.9293 119.416C56.9224 119.416 55.5686 102.886 53.853 98.0665Z" fill="#FFC73C"/>
<path d="M54.4619 99.0757C55.7029 104.929 56.4479 110.876 56.6891 116.855" stroke="#F2AE30" stroke-miterlimit="10" stroke-linecap="round"/>
<path d="M156.878 134.217H19.6689V137.659H156.878V134.217Z" fill="#0B2D50"/>
</svg>
