<svg width="18" height="14" viewBox="0 0 18 14" fill="none" xmlns="http://www.w3.org/2000/svg">
<path d="M15.875 0.125H2.125C1.79348 0.125 1.47554 0.256696 1.24112 0.491116C1.0067 0.725537 0.875 1.04348 0.875 1.375V12.625C0.875 12.9565 1.0067 13.2745 1.24112 13.5089C1.47554 13.7433 1.79348 13.875 2.125 13.875H3.17188C3.29022 13.8753 3.40617 13.8416 3.5059 13.7779C3.60563 13.7142 3.68494 13.6232 3.73438 13.5156C4.04018 12.8756 4.52087 12.3353 5.12088 11.957C5.72088 11.5787 6.4157 11.3779 7.125 11.3779C7.8343 11.3779 8.52912 11.5787 9.12912 11.957C9.72913 12.3353 10.2098 12.8756 10.5156 13.5156C10.5651 13.6232 10.6444 13.7142 10.7441 13.7779C10.8438 13.8416 10.9598 13.8753 11.0781 13.875H15.875C16.2065 13.875 16.5245 13.7433 16.7589 13.5089C16.9933 13.2745 17.125 12.9565 17.125 12.625V1.375C17.125 1.04348 16.9933 0.725537 16.7589 0.491116C16.5245 0.256696 16.2065 0.125 15.875 0.125ZM5.25 8.25C5.25 7.87916 5.35997 7.51665 5.56599 7.20831C5.77202 6.89996 6.06486 6.65964 6.40747 6.51773C6.75008 6.37581 7.12708 6.33868 7.49079 6.41103C7.85451 6.48337 8.1886 6.66195 8.45083 6.92417C8.71305 7.1864 8.89163 7.52049 8.96397 7.8842C9.03632 8.24792 8.99919 8.62492 8.85727 8.96753C8.71536 9.31014 8.47504 9.60298 8.16669 9.80901C7.85835 10.015 7.49584 10.125 7.125 10.125C6.62835 10.1229 6.15263 9.92474 5.80145 9.57355C5.45026 9.22237 5.25206 8.74665 5.25 8.25ZM15.875 12.625H11.4531C10.9315 11.7276 10.1458 11.0128 9.20312 10.5781C9.67624 10.1569 10.0102 9.60175 10.1606 8.98639C10.311 8.37102 10.2709 7.72447 10.0455 7.13243C9.82015 6.54039 9.42016 6.03083 8.89859 5.6713C8.37701 5.31177 7.75849 5.11924 7.125 5.11924C6.49151 5.11924 5.87299 5.31177 5.35141 5.6713C4.82984 6.03083 4.42985 6.54039 4.20447 7.13243C3.97909 7.72447 3.93896 8.37102 4.0894 8.98639C4.23985 9.60175 4.57376 10.1569 5.04688 10.5781C4.10422 11.0128 3.31853 11.7276 2.79687 12.625H2.125V1.375H15.875V12.625ZM3.375 4.5V3.25C3.375 3.08424 3.44085 2.92527 3.55806 2.80806C3.67527 2.69085 3.83424 2.625 4 2.625H14C14.1658 2.625 14.3247 2.69085 14.4419 2.80806C14.5592 2.92527 14.625 3.08424 14.625 3.25V10.75C14.625 10.9158 14.5592 11.0747 14.4419 11.1919C14.3247 11.3092 14.1658 11.375 14 11.375H12.75C12.5842 11.375 12.4253 11.3092 12.3081 11.1919C12.1908 11.0747 12.125 10.9158 12.125 10.75C12.125 10.5842 12.1908 10.4253 12.3081 10.3081C12.4253 10.1908 12.5842 10.125 12.75 10.125H13.375V3.875H4.625V4.5C4.625 4.66576 4.55915 4.82473 4.44194 4.94194C4.32473 5.05915 4.16576 5.125 4 5.125C3.83424 5.125 3.67527 5.05915 3.55806 4.94194C3.44085 4.82473 3.375 4.66576 3.375 4.5Z" fill="#2C2C2C"/>
</svg>
