<svg width="13" height="16" viewBox="0 0 13 16" fill="none" xmlns="http://www.w3.org/2000/svg">
<path d="M5.75054 0.499052C4.86368 0.49632 3.98516 0.689144 3.16585 1.06636C2.34654 1.44357 1.60274 1.99766 0.977539 2.69655L2.03804 3.87489C3.02954 2.77322 4.34804 2.16572 5.75054 2.16572C7.15304 2.16572 8.47154 2.77322 9.46304 3.87489C10.4545 4.97655 11.0013 6.44155 11.0013 7.99989C11.0013 9.55822 10.4545 11.0232 9.46304 12.1249C8.47154 13.2266 7.15304 13.8341 5.75054 13.8341C4.34804 13.8341 3.02954 13.2266 2.03804 12.1249L0.977539 13.3032C2.25179 14.7199 3.94679 15.5007 5.75054 15.5007C7.55429 15.5007 9.24929 14.7199 10.5235 13.3032C11.7985 11.8874 12.5013 10.0041 12.5013 7.99989C12.5013 5.99572 11.7985 4.11239 10.5235 2.69655C9.89834 1.99766 9.15454 1.44357 8.33523 1.06636C7.51592 0.689144 6.63739 0.49632 5.75054 0.499052Z" fill="#2C2C2C"/>
</svg>
