<svg width="20" height="20" viewBox="0 0 20 20" fill="none" xmlns="http://www.w3.org/2000/svg">
<path d="M9.9827 0.970386C5.58546 0.88064 1.48222 4.49525 1.02482 8.87266C0.541446 12.5748 2.57394 16.4797 5.96473 18.0931C9.16654 19.702 13.3184 19.2175 15.9738 16.7758C18.6554 14.4239 19.7757 10.422 18.5351 7.05146C17.3945 3.72926 14.2043 1.19904 10.6758 0.996656C10.4452 0.979644 10.2139 0.970191 9.98271 0.970191L9.9827 0.970386ZM9.88034 1.94462C13.9125 1.79279 17.7021 5.15504 18.0181 9.18124C18.4061 12.7321 16.172 16.4107 12.7721 17.5809C9.46711 18.803 5.41023 17.6149 3.41413 14.6753C1.36542 11.8056 1.44679 7.56962 3.77136 4.87735C5.25917 3.08526 7.54201 1.95333 9.88034 1.94463V1.94462ZM10.0405 2.82277C6.31044 2.7041 2.87883 5.97886 2.81145 9.70904C2.64702 13.0798 5.14524 16.3877 8.48254 17.0298C11.5748 17.7066 15.0298 16.1181 16.4095 13.2418C17.8363 10.4328 17.1982 6.69458 14.7637 4.64265C13.4738 3.50004 11.7676 2.82466 10.0405 2.82277ZM9.99657 3.78029C13.2847 3.69335 16.2794 6.65244 16.2267 9.94384C16.2848 12.9865 13.8359 15.8784 10.7808 16.1851C7.91251 16.5618 4.88829 14.7225 4.06364 11.9165C3.19925 9.24304 4.33491 6.02298 6.82601 4.64643C7.78112 4.08377 8.88752 3.77849 9.99657 3.78029ZM5.90189 6.87458V13.1255H14.0977V6.87458H5.90189ZM7.72254 7.85117H12.2764C11.4698 8.3476 10.6631 9.43711 9.8566 9.55607C9.14527 8.98774 8.43391 8.4195 7.72254 7.85118V7.85117ZM13.1223 8.42613V12.1488H6.87727V8.42641C7.9178 9.25797 8.95828 10.0895 9.99885 10.921C11.0401 10.0894 12.0812 9.25778 13.1223 8.42613H13.1223Z" fill="#2C2C2C"/>
</svg>
