<svg width="12" height="12" viewBox="0 0 12 12" fill="none" xmlns="http://www.w3.org/2000/svg">
<path fill-rule="evenodd" clip-rule="evenodd" d="M8.86128 0.195262C9.12163 -0.0650874 9.54374 -0.0650874 9.80409 0.195262L11.8041 2.19526C12.0644 2.45561 12.0644 2.87772 11.8041 3.13807L9.80409 5.13807C9.54374 5.39842 9.12163 5.39842 8.86128 5.13807C8.60093 4.87772 8.60093 4.45561 8.86128 4.19526L10.3899 2.66667L8.86128 1.13807C8.60093 0.877722 8.60093 0.455612 8.86128 0.195262Z" fill="#FC4D6D"/>
<path fill-rule="evenodd" clip-rule="evenodd" d="M4.5 3C4.10218 3 3.72064 3.15804 3.43934 3.43934C3.15804 3.72064 3 4.10218 3 4.5V5.5C3 5.77614 2.77614 6 2.5 6C2.22386 6 2 5.77614 2 5.5V4.5C2 3.83696 2.26339 3.20107 2.73223 2.73223C3.20107 2.26339 3.83696 2 4.5 2H11.5C11.7761 2 12 2.22386 12 2.5C12 2.77614 11.7761 3 11.5 3H4.5Z" fill="#FC4D6D"/>
<path fill-rule="evenodd" clip-rule="evenodd" d="M5.13807 6.86201C5.39842 7.12236 5.39842 7.54447 5.13807 7.80482L3.60948 9.33341L5.13807 10.862C5.39842 11.1224 5.39842 11.5445 5.13807 11.8048C4.87772 12.0652 4.45561 12.0652 4.19526 11.8048L2.19526 9.80482C1.93491 9.54447 1.93491 9.12236 2.19526 8.86201L4.19526 6.86201C4.45561 6.60166 4.87772 6.60166 5.13807 6.86201Z" fill="#FC4D6D"/>
<path fill-rule="evenodd" clip-rule="evenodd" d="M11.5 6C11.7761 6 12 6.22386 12 6.5V7.5C12 8.16304 11.7366 8.79893 11.2678 9.26777C10.7989 9.73661 10.163 10 9.5 10H2.5C2.22386 10 2 9.77614 2 9.5C2 9.22386 2.22386 9 2.5 9H9.5C9.89782 9 10.2794 8.84196 10.5607 8.56066C10.842 8.27936 11 7.89782 11 7.5V6.5C11 6.22386 11.2239 6 11.5 6Z" fill="#FC4D6D"/>
</svg>
