<svg width="18" height="18" viewBox="0 0 18 18" fill="none" xmlns="http://www.w3.org/2000/svg">
<path d="M10.5167 17.3332H7.48332C7.29326 17.3332 7.1089 17.2683 6.96082 17.1491C6.81274 17.03 6.70982 16.8638 6.66915 16.6782L6.32998 15.1082C5.87753 14.9099 5.44851 14.662 5.05082 14.369L3.51998 14.8565C3.33879 14.9143 3.14328 14.9084 2.96592 14.8397C2.78856 14.771 2.64003 14.6437 2.54499 14.479L1.02499 11.8532C0.930939 11.6883 0.895637 11.4964 0.924854 11.3088C0.95407 11.1212 1.04608 10.9491 1.18582 10.8207L2.37332 9.73734C2.31932 9.2466 2.31932 8.75141 2.37332 8.26067L1.18582 7.17984C1.04588 7.05131 0.953747 6.87907 0.924526 6.69132C0.895304 6.50358 0.930726 6.31148 1.02499 6.1465L2.54165 3.519C2.63669 3.35427 2.78523 3.227 2.96259 3.15833C3.13994 3.08966 3.33545 3.08372 3.51665 3.1415L5.04748 3.629C5.25082 3.479 5.46248 3.339 5.68082 3.21234C5.89165 3.094 6.10832 2.9865 6.32998 2.89067L6.66999 1.32234C6.71046 1.13667 6.81318 0.97041 6.96111 0.851128C7.10904 0.731845 7.29329 0.666704 7.48332 0.666504H10.5167C10.7067 0.666704 10.8909 0.731845 11.0389 0.851128C11.1868 0.97041 11.2895 1.13667 11.33 1.32234L11.6733 2.8915C12.1255 3.08975 12.5543 3.33766 12.9517 3.63067L14.4833 3.14317C14.6644 3.0856 14.8597 3.09165 15.0369 3.1603C15.2141 3.22896 15.3625 3.35611 15.4575 3.52067L16.9742 6.14817C17.1675 6.48734 17.1008 6.9165 16.8133 7.18067L15.6258 8.264C15.6798 8.75475 15.6798 9.24993 15.6258 9.74067L16.8133 10.824C17.1008 11.089 17.1675 11.5173 16.9742 11.8565L15.4575 14.484C15.3624 14.6487 15.2139 14.776 15.0366 14.8447C14.8592 14.9134 14.6637 14.9193 14.4825 14.8615L12.9517 14.374C12.5543 14.6668 12.1255 14.9144 11.6733 15.1123L11.33 16.6782C11.2893 16.8637 11.1866 17.0298 11.0386 17.1489C10.8907 17.268 10.7066 17.333 10.5167 17.3332ZM5.34998 12.524L6.03332 13.024C6.18748 13.1373 6.34749 13.2415 6.51415 13.3365C6.67082 13.4273 6.83082 13.509 6.99665 13.5832L7.77415 13.924L8.15498 15.6665H9.84665L10.2275 13.9232L11.005 13.5823C11.3442 13.4323 11.6667 13.2465 11.9658 13.0273L12.6492 12.5273L14.3508 13.069L15.1967 11.604L13.8775 10.4015L13.9708 9.55817C14.0125 9.189 14.0125 8.8165 13.9708 8.44817L13.8775 7.60484L15.1975 6.39984L14.3508 4.934L12.65 5.47567L11.9658 4.97567C11.6665 4.75541 11.3444 4.56795 11.005 4.4165L10.2275 4.07567L9.84665 2.33317H8.15498L7.77165 4.0765L6.99665 4.4165C6.65681 4.56534 6.33455 4.75149 6.03582 4.9715L5.35165 5.4715L3.65165 4.92984L2.80415 6.39984L4.12332 7.60067L4.02998 8.44484C3.98832 8.814 3.98832 9.1865 4.02998 9.55484L4.12332 10.3982L2.80415 11.6007L3.64998 13.0657L5.34998 12.524ZM8.99665 12.3332C8.1126 12.3332 7.26475 11.982 6.63963 11.3569C6.01451 10.7317 5.66332 9.88389 5.66332 8.99984C5.66332 8.11578 6.01451 7.26794 6.63963 6.64281C7.26475 6.01769 8.1126 5.6665 8.99665 5.6665C9.88071 5.6665 10.7286 6.01769 11.3537 6.64281C11.9788 7.26794 12.33 8.11578 12.33 8.99984C12.33 9.88389 11.9788 10.7317 11.3537 11.3569C10.7286 11.982 9.88071 12.3332 8.99665 12.3332ZM8.99665 7.33317C8.67028 7.3335 8.35119 7.42965 8.07897 7.60968C7.80675 7.78971 7.59337 8.04571 7.46532 8.34591C7.33727 8.64611 7.30017 8.9773 7.35863 9.29839C7.41709 9.61948 7.56854 9.91634 7.79419 10.1521C8.01983 10.3879 8.30974 10.5523 8.62795 10.6248C8.94616 10.6974 9.27866 10.6749 9.5842 10.5601C9.88974 10.4454 10.1549 10.2435 10.3467 9.97947C10.5385 9.71543 10.6486 9.40088 10.6633 9.07484V9.40817V8.99984C10.6633 8.55781 10.4877 8.13389 10.1752 7.82133C9.8626 7.50877 9.43868 7.33317 8.99665 7.33317Z" fill="#2C2C2C"/>
</svg>
